<?xml version="1.0" encoding="UTF-8"?>
<svg id="Layer_2" data-name="Layer 2" xmlns="http://www.w3.org/2000/svg" viewBox="0 0 97.51 97.51">
  <defs>
    <style>
      .cls-1 {
        fill: #000;
      }

      .cls-1, .cls-2 {
        stroke-width: 0px;
      }

      .cls-2 {
        fill: #fff;
      }
    </style>
  </defs>
  <g id="Layer_1-2" data-name="Layer 1">
    <circle class="cls-1" cx="48.76" cy="48.76" r="48.76"/>
    <path class="cls-2" d="M77.39,27.75v-1.15c0-.46-.37-.83-.83-.83H20.95c-.46,0-.83.37-.83.83v1.14c0,.29.15.56.4.71l25.41,15.72c1.74,1.08,3.94,1.08,5.67,0l25.4-15.7c.25-.15.4-.42.4-.71Z"/>
    <path class="cls-2" d="M47.18,52.32c.93.58,2.24.58,3.17,0l25.78-15.95c.56-.34,1.27.06,1.27.71v27.8c0,2.65-2.15,4.8-4.8,4.8H24.92c-2.65,0-4.8-2.15-4.8-4.8v-27.8c0-.65.72-1.05,1.27-.71l25.79,15.95Z"/>
  </g>
</svg>